<?xml version="1.0" encoding="UTF-8" standalone="no"?>
<!DOCTYPE svg PUBLIC "-//W3C//DTD SVG 1.1//EN" "http://www.w3.org/Graphics/SVG/1.1/DTD/svg11.dtd">
<svg width="100%" height="100%" viewBox="0 0 3000 1000" version="1.1" xmlns="http://www.w3.org/2000/svg" xmlns:xlink="http://www.w3.org/1999/xlink" xml:space="preserve" xmlns:serif="http://www.serif.com/" style="fill-rule:evenodd;clip-rule:evenodd;stroke-linejoin:round;stroke-miterlimit:2;">
    <g id="Logo-Background-dunkel" serif:id="Logo Background dunkel" transform="matrix(2.936067,0,0,2.936067,-3.271476,-3.102679)">
        <g id="Background" transform="matrix(0.820703,0,0,0.995882,-128.556824,-385.345546)">
            <rect x="158" y="388" width="1245" height="342" style="fill:rgb(15,33,56);"/>
        </g>
        <g id="Logo_light" transform="matrix(1,0,0,1,-0.168624,-159.056329)">
            <g id="Schriftzug" transform="matrix(0.638006,0,0,0.638006,-416.44883,-262.910759)">
                <g transform="matrix(113.784488,0,0,113.784488,1162.83826,967.763605)">
                    <path d="M0.311,0.008C0.29,0.008 0.275,0.002 0.264,-0.009C0.253,-0.021 0.247,-0.037 0.247,-0.058L0.247,-0.598L0.052,-0.598C0.035,-0.598 0.021,-0.603 0.011,-0.613C0.002,-0.622 -0.003,-0.635 -0.003,-0.652C-0.003,-0.669 0.002,-0.683 0.011,-0.692C0.021,-0.7 0.035,-0.705 0.052,-0.705L0.57,-0.705C0.587,-0.705 0.601,-0.7 0.611,-0.692C0.62,-0.683 0.625,-0.669 0.625,-0.652C0.625,-0.635 0.62,-0.622 0.611,-0.613C0.601,-0.603 0.587,-0.598 0.57,-0.598L0.375,-0.598L0.375,-0.058C0.375,-0.037 0.37,-0.021 0.359,-0.009C0.348,0.002 0.332,0.008 0.311,0.008Z" style="fill:white;fill-rule:nonzero;"/>
                </g>
                <g transform="matrix(113.784488,0,0,113.784488,1239.756574,967.763605)">
                    <path d="M0.127,0.008C0.107,0.008 0.092,0.003 0.081,-0.009C0.07,-0.019 0.065,-0.035 0.065,-0.056L0.065,-0.65C0.065,-0.671 0.07,-0.686 0.081,-0.697C0.092,-0.708 0.107,-0.713 0.127,-0.713C0.147,-0.713 0.163,-0.708 0.174,-0.697C0.184,-0.686 0.19,-0.671 0.19,-0.65L0.19,-0.391L0.176,-0.391C0.191,-0.426 0.214,-0.453 0.244,-0.472C0.276,-0.49 0.311,-0.499 0.35,-0.499C0.389,-0.499 0.422,-0.492 0.447,-0.477C0.472,-0.462 0.491,-0.44 0.504,-0.411C0.517,-0.381 0.523,-0.343 0.523,-0.298L0.523,-0.056C0.523,-0.035 0.518,-0.019 0.507,-0.009C0.496,0.003 0.481,0.008 0.461,0.008C0.441,0.008 0.425,0.003 0.415,-0.009C0.404,-0.019 0.398,-0.035 0.398,-0.056L0.398,-0.292C0.398,-0.33 0.391,-0.358 0.377,-0.375C0.362,-0.392 0.34,-0.401 0.31,-0.401C0.273,-0.401 0.244,-0.39 0.223,-0.366C0.201,-0.343 0.19,-0.313 0.19,-0.275L0.19,-0.056C0.19,-0.013 0.169,0.008 0.127,0.008Z" style="fill:white;fill-rule:nonzero;"/>
                </g>
                <g transform="matrix(113.784488,0,0,113.784488,1306.320499,967.763605)">
                    <path d="M0.306,0.01C0.251,0.01 0.203,-0 0.163,-0.021C0.123,-0.042 0.092,-0.071 0.071,-0.109C0.049,-0.147 0.038,-0.192 0.038,-0.244C0.038,-0.295 0.049,-0.339 0.07,-0.377C0.091,-0.415 0.12,-0.445 0.157,-0.467C0.194,-0.488 0.236,-0.499 0.283,-0.499C0.318,-0.499 0.349,-0.493 0.377,-0.482C0.404,-0.471 0.428,-0.454 0.448,-0.433C0.467,-0.412 0.482,-0.386 0.492,-0.355C0.503,-0.325 0.508,-0.291 0.508,-0.253C0.508,-0.241 0.504,-0.232 0.495,-0.226C0.487,-0.219 0.475,-0.216 0.46,-0.216L0.139,-0.216L0.139,-0.288L0.42,-0.288L0.404,-0.273C0.404,-0.304 0.4,-0.329 0.391,-0.35C0.382,-0.371 0.369,-0.387 0.352,-0.398C0.335,-0.409 0.313,-0.414 0.288,-0.414C0.26,-0.414 0.236,-0.408 0.216,-0.395C0.197,-0.382 0.182,-0.363 0.172,-0.34C0.161,-0.316 0.156,-0.288 0.156,-0.255L0.156,-0.248C0.156,-0.193 0.169,-0.152 0.195,-0.126C0.22,-0.098 0.258,-0.085 0.308,-0.085C0.325,-0.085 0.345,-0.087 0.366,-0.091C0.388,-0.096 0.409,-0.103 0.428,-0.114C0.442,-0.122 0.454,-0.126 0.465,-0.124C0.476,-0.123 0.484,-0.12 0.49,-0.113C0.497,-0.106 0.501,-0.098 0.502,-0.088C0.503,-0.079 0.501,-0.069 0.496,-0.059C0.491,-0.049 0.483,-0.04 0.471,-0.033C0.448,-0.018 0.421,-0.007 0.391,-0.001C0.36,0.006 0.332,0.01 0.306,0.01Z" style="fill:white;fill-rule:nonzero;"/>
                </g>
                <g transform="matrix(113.784488,0,0,113.784488,1367.991692,967.763605)">
                    <path d="M0.129,0.008C0.108,0.008 0.093,0.003 0.082,-0.009C0.071,-0.019 0.065,-0.035 0.065,-0.056L0.065,-0.434C0.065,-0.455 0.07,-0.47 0.081,-0.481C0.092,-0.492 0.107,-0.497 0.126,-0.497C0.145,-0.497 0.16,-0.492 0.171,-0.481C0.182,-0.47 0.187,-0.455 0.187,-0.434L0.187,-0.371L0.177,-0.371C0.186,-0.411 0.205,-0.441 0.232,-0.462C0.259,-0.483 0.296,-0.495 0.341,-0.499C0.355,-0.5 0.366,-0.497 0.374,-0.488C0.383,-0.48 0.388,-0.467 0.389,-0.45C0.39,-0.433 0.387,-0.42 0.378,-0.41C0.368,-0.399 0.355,-0.393 0.337,-0.391L0.315,-0.389C0.274,-0.385 0.244,-0.373 0.223,-0.352C0.202,-0.331 0.192,-0.301 0.192,-0.263L0.192,-0.056C0.192,-0.035 0.187,-0.019 0.176,-0.009C0.165,0.003 0.15,0.008 0.129,0.008Z" style="fill:white;fill-rule:nonzero;"/>
                </g>
                <g transform="matrix(113.784488,0,0,113.784488,1412.595211,967.763605)">
                    <path d="M0.129,0.008C0.109,0.008 0.094,0.003 0.083,-0.009C0.072,-0.019 0.067,-0.035 0.067,-0.056L0.067,-0.434C0.067,-0.455 0.072,-0.47 0.083,-0.481C0.094,-0.492 0.109,-0.497 0.128,-0.497C0.147,-0.497 0.162,-0.492 0.173,-0.481C0.184,-0.47 0.189,-0.455 0.189,-0.434L0.189,-0.361L0.178,-0.391C0.191,-0.424 0.212,-0.451 0.24,-0.47C0.268,-0.489 0.301,-0.499 0.34,-0.499C0.379,-0.499 0.412,-0.49 0.437,-0.471C0.462,-0.452 0.48,-0.424 0.49,-0.385L0.476,-0.385C0.489,-0.42 0.511,-0.448 0.542,-0.469C0.573,-0.489 0.608,-0.499 0.648,-0.499C0.685,-0.499 0.716,-0.492 0.741,-0.477C0.765,-0.462 0.783,-0.44 0.795,-0.411C0.807,-0.381 0.813,-0.343 0.813,-0.298L0.813,-0.056C0.813,-0.035 0.808,-0.019 0.796,-0.009C0.785,0.003 0.77,0.008 0.75,0.008C0.73,0.008 0.715,0.003 0.704,-0.009C0.693,-0.019 0.688,-0.035 0.688,-0.056L0.688,-0.293C0.688,-0.33 0.682,-0.358 0.669,-0.375C0.657,-0.392 0.636,-0.401 0.607,-0.401C0.574,-0.401 0.549,-0.39 0.53,-0.366C0.511,-0.343 0.502,-0.312 0.502,-0.271L0.502,-0.056C0.502,-0.035 0.497,-0.019 0.486,-0.009C0.475,0.003 0.46,0.008 0.44,0.008C0.42,0.008 0.405,0.003 0.394,-0.009C0.383,-0.019 0.377,-0.035 0.377,-0.056L0.377,-0.293C0.377,-0.33 0.371,-0.358 0.358,-0.375C0.346,-0.392 0.326,-0.401 0.297,-0.401C0.264,-0.401 0.239,-0.39 0.22,-0.366C0.201,-0.343 0.192,-0.312 0.192,-0.271L0.192,-0.056C0.192,-0.013 0.171,0.008 0.129,0.008Z" style="fill:white;fill-rule:nonzero;"/>
                </g>
                <g transform="matrix(113.784488,0,0,113.784488,1512.384207,967.763605)">
                    <path d="M0.226,0.01C0.191,0.01 0.159,0.003 0.132,-0.011C0.104,-0.024 0.082,-0.043 0.067,-0.066C0.051,-0.089 0.043,-0.116 0.043,-0.145C0.043,-0.181 0.052,-0.21 0.071,-0.231C0.09,-0.252 0.12,-0.267 0.162,-0.276C0.204,-0.285 0.26,-0.29 0.331,-0.29L0.381,-0.29L0.381,-0.218L0.332,-0.218C0.291,-0.218 0.258,-0.216 0.233,-0.212C0.208,-0.208 0.191,-0.201 0.18,-0.192C0.17,-0.182 0.165,-0.168 0.165,-0.151C0.165,-0.129 0.173,-0.111 0.188,-0.097C0.203,-0.083 0.225,-0.076 0.252,-0.076C0.274,-0.076 0.294,-0.081 0.31,-0.091C0.328,-0.102 0.341,-0.116 0.351,-0.134C0.361,-0.152 0.366,-0.173 0.366,-0.196L0.366,-0.311C0.366,-0.344 0.359,-0.368 0.344,-0.383C0.329,-0.398 0.305,-0.405 0.27,-0.405C0.251,-0.405 0.23,-0.403 0.208,-0.398C0.185,-0.393 0.162,-0.385 0.137,-0.374C0.124,-0.368 0.113,-0.366 0.104,-0.369C0.094,-0.372 0.086,-0.377 0.081,-0.386C0.076,-0.394 0.073,-0.403 0.073,-0.413C0.073,-0.423 0.076,-0.433 0.081,-0.443C0.086,-0.452 0.095,-0.459 0.108,-0.464C0.139,-0.477 0.168,-0.486 0.197,-0.491C0.225,-0.496 0.251,-0.499 0.274,-0.499C0.322,-0.499 0.361,-0.492 0.393,-0.477C0.423,-0.462 0.447,-0.44 0.462,-0.411C0.477,-0.381 0.485,-0.343 0.485,-0.296L0.485,-0.056C0.485,-0.035 0.48,-0.019 0.47,-0.009C0.46,0.003 0.446,0.008 0.427,0.008C0.408,0.008 0.394,0.003 0.384,-0.009C0.373,-0.019 0.368,-0.035 0.368,-0.056L0.368,-0.104L0.376,-0.104C0.371,-0.081 0.362,-0.061 0.349,-0.044C0.335,-0.027 0.318,-0.013 0.297,-0.004C0.276,0.005 0.253,0.01 0.226,0.01Z" style="fill:white;fill-rule:nonzero;"/>
                </g>
                <g transform="matrix(113.784488,0,0,113.784488,1574.624322,967.763605)">
                    <path d="M0.232,0.01C0.177,0.01 0.135,-0.006 0.107,-0.037C0.079,-0.069 0.065,-0.116 0.065,-0.177L0.065,-0.65C0.065,-0.671 0.07,-0.686 0.081,-0.697C0.092,-0.708 0.107,-0.713 0.127,-0.713C0.147,-0.713 0.163,-0.708 0.174,-0.697C0.184,-0.686 0.19,-0.671 0.19,-0.65L0.19,-0.183C0.19,-0.152 0.197,-0.13 0.209,-0.115C0.223,-0.1 0.241,-0.093 0.265,-0.093C0.27,-0.093 0.275,-0.093 0.28,-0.093C0.285,-0.094 0.289,-0.094 0.294,-0.095C0.303,-0.096 0.31,-0.094 0.313,-0.088C0.316,-0.081 0.318,-0.068 0.318,-0.049C0.318,-0.032 0.315,-0.019 0.308,-0.01C0.301,-0.001 0.29,0.005 0.275,0.007C0.268,0.008 0.261,0.008 0.254,0.009C0.247,0.01 0.239,0.01 0.232,0.01Z" style="fill:white;fill-rule:nonzero;"/>
                </g>
                <g transform="matrix(113.784488,0,0,113.784488,1610.921574,967.763605)">
                </g>
                <g transform="matrix(113.784488,0,0,113.784488,1641.75717,967.763605)">
                    <path d="M0.311,0.008C0.29,0.008 0.275,0.002 0.264,-0.009C0.253,-0.021 0.247,-0.037 0.247,-0.058L0.247,-0.598L0.052,-0.598C0.035,-0.598 0.021,-0.603 0.011,-0.613C0.002,-0.622 -0.003,-0.635 -0.003,-0.652C-0.003,-0.669 0.002,-0.683 0.011,-0.692C0.021,-0.7 0.035,-0.705 0.052,-0.705L0.57,-0.705C0.587,-0.705 0.601,-0.7 0.611,-0.692C0.62,-0.683 0.625,-0.669 0.625,-0.652C0.625,-0.635 0.62,-0.622 0.611,-0.613C0.601,-0.603 0.587,-0.598 0.57,-0.598L0.375,-0.598L0.375,-0.058C0.375,-0.037 0.37,-0.021 0.359,-0.009C0.348,0.002 0.332,0.008 0.311,0.008Z" style="fill:white;fill-rule:nonzero;"/>
                </g>
                <g transform="matrix(113.784488,0,0,113.784488,1703.542147,967.763605)">
                    <path d="M0.288,0.01C0.237,0.01 0.193,-0 0.156,-0.021C0.119,-0.042 0.09,-0.071 0.069,-0.11C0.048,-0.148 0.038,-0.193 0.038,-0.245C0.038,-0.284 0.044,-0.32 0.056,-0.351C0.067,-0.382 0.084,-0.408 0.106,-0.43C0.128,-0.453 0.154,-0.47 0.185,-0.481C0.216,-0.493 0.25,-0.499 0.288,-0.499C0.339,-0.499 0.383,-0.489 0.42,-0.468C0.457,-0.447 0.486,-0.418 0.507,-0.38C0.528,-0.342 0.538,-0.297 0.538,-0.245C0.538,-0.206 0.532,-0.17 0.52,-0.139C0.509,-0.108 0.492,-0.081 0.47,-0.059C0.448,-0.036 0.422,-0.019 0.391,-0.007C0.36,0.004 0.326,0.01 0.288,0.01ZM0.288,-0.085C0.313,-0.085 0.334,-0.091 0.353,-0.103C0.372,-0.115 0.386,-0.133 0.397,-0.157C0.407,-0.18 0.412,-0.21 0.412,-0.245C0.412,-0.298 0.401,-0.338 0.378,-0.364C0.355,-0.391 0.325,-0.404 0.288,-0.404C0.263,-0.404 0.242,-0.398 0.223,-0.387C0.204,-0.375 0.19,-0.357 0.179,-0.334C0.169,-0.31 0.164,-0.28 0.164,-0.245C0.164,-0.192 0.175,-0.152 0.198,-0.126C0.221,-0.098 0.251,-0.085 0.288,-0.085Z" style="fill:white;fill-rule:nonzero;"/>
                </g>
                <g transform="matrix(113.784488,0,0,113.784488,1769.082012,967.763605)">
                    <path d="M0.145,-0C0.123,-0 0.106,-0.006 0.095,-0.018C0.083,-0.029 0.077,-0.046 0.077,-0.068L0.077,-0.637C0.077,-0.659 0.083,-0.676 0.095,-0.688C0.106,-0.699 0.123,-0.705 0.145,-0.705L0.339,-0.705C0.457,-0.705 0.548,-0.675 0.613,-0.614C0.677,-0.553 0.709,-0.466 0.709,-0.353C0.709,-0.296 0.701,-0.246 0.684,-0.203C0.668,-0.159 0.644,-0.122 0.613,-0.092C0.581,-0.062 0.542,-0.039 0.496,-0.024C0.451,-0.008 0.398,-0 0.339,-0L0.145,-0ZM0.205,-0.106L0.331,-0.106C0.372,-0.106 0.408,-0.111 0.439,-0.121C0.469,-0.132 0.494,-0.147 0.514,-0.168C0.535,-0.188 0.55,-0.214 0.56,-0.244C0.57,-0.276 0.575,-0.312 0.575,-0.353C0.575,-0.436 0.555,-0.497 0.514,-0.538C0.473,-0.579 0.412,-0.599 0.331,-0.599L0.205,-0.599L0.205,-0.106Z" style="fill:white;fill-rule:nonzero;"/>
                </g>
                <g transform="matrix(113.784488,0,0,113.784488,1855.785792,967.763605)">
                    <path d="M0.288,0.01C0.237,0.01 0.193,-0 0.156,-0.021C0.119,-0.042 0.09,-0.071 0.069,-0.11C0.048,-0.148 0.038,-0.193 0.038,-0.245C0.038,-0.284 0.044,-0.32 0.056,-0.351C0.067,-0.382 0.084,-0.408 0.106,-0.43C0.128,-0.453 0.154,-0.47 0.185,-0.481C0.216,-0.493 0.25,-0.499 0.288,-0.499C0.339,-0.499 0.383,-0.489 0.42,-0.468C0.457,-0.447 0.486,-0.418 0.507,-0.38C0.528,-0.342 0.538,-0.297 0.538,-0.245C0.538,-0.206 0.532,-0.17 0.52,-0.139C0.509,-0.108 0.492,-0.081 0.47,-0.059C0.448,-0.036 0.422,-0.019 0.391,-0.007C0.36,0.004 0.326,0.01 0.288,0.01ZM0.288,-0.085C0.313,-0.085 0.334,-0.091 0.353,-0.103C0.372,-0.115 0.386,-0.133 0.397,-0.157C0.407,-0.18 0.412,-0.21 0.412,-0.245C0.412,-0.298 0.401,-0.338 0.378,-0.364C0.355,-0.391 0.325,-0.404 0.288,-0.404C0.263,-0.404 0.242,-0.398 0.223,-0.387C0.204,-0.375 0.19,-0.357 0.179,-0.334C0.169,-0.31 0.164,-0.28 0.164,-0.245C0.164,-0.192 0.175,-0.152 0.198,-0.126C0.221,-0.098 0.251,-0.085 0.288,-0.085Z" style="fill:white;fill-rule:nonzero;"/>
                </g>
                <g transform="matrix(113.784488,0,0,113.784488,1921.325657,967.763605)">
                </g>
            </g>
            <g id="Icon">
                <g transform="matrix(1,0,0,1,-3.238578,41.218334)">
                    <path d="M226.526,328.464C220.059,323.223 221.046,319.126 221.046,311.5C221.045,286.765 220.021,283.372 225.49,283.822C230.855,284.264 229.778,289.31 229.803,298.499C229.854,317.734 228.051,322.336 238.501,322.329C257.364,322.316 262.859,323.469 263.419,318.47C264.416,309.574 254.396,316.662 246.737,312.115C239.077,307.567 238.853,303.053 238.853,295.505C238.853,273.608 238.285,271.498 242.418,267.443C254.722,255.374 273.647,261.189 273.009,279.499C271.892,311.599 273.613,318.593 271.791,322.831C267.675,332.401 257.755,331.763 253.288,331.763C232.258,331.763 231.436,331.743 226.526,328.464ZM255.513,305.153C259.055,305.174 263.423,305.847 263.972,303.626C263.98,303.594 264.698,277.748 263.519,274.493C261.486,268.879 247.976,266.719 247.756,278.503C247.371,299.151 247.752,299.814 248.665,301.404C250.791,305.107 253.882,304.945 255.513,305.153Z" style="fill:url(#_Linear1);"/>
                </g>
                <g transform="matrix(1,0,0,1,-3.238578,41.218334)">
                    <path d="M291.134,261.641C290.772,263.136 291.494,298.445 290.763,302.56C288.841,313.37 277.978,314.033 276.515,314.033C274.343,314.033 274.76,314.597 274.76,309.502C274.76,303.691 274.343,306.159 277.343,305.049C283.253,302.862 282.085,300.864 282.223,271.497C282.304,254.08 281.796,254.016 281.336,253.719C280.15,252.954 276.413,253.723 254.505,253.275C245.375,253.089 249.413,260.251 247.546,261.11C245.198,262.19 242.456,264.447 241.355,265.549C239.474,267.429 238.959,269.239 238.959,264.855C238.959,259.657 239.21,257.755 239.21,251.989C239.21,249.903 241.07,243.283 252.501,243.171C298.587,242.72 300.501,242.359 304.612,245.347C318.109,255.156 308.834,272.812 296.751,271.879C294.377,271.696 294.008,271.791 293.526,271.308C293.044,270.826 292.845,263.099 293.505,263.099C297.311,263.099 297.949,263.557 300.12,262.039C301.819,260.851 302.493,259.278 302.458,257.709C302.357,253.124 296.2,248.577 291.88,253.819C291.727,254.004 290.89,255.019 290.547,256.51C289.95,259.103 290.524,259.046 291.134,261.641Z" style="fill:url(#_Linear2);"/>
                </g>
            </g>
        </g>
    </g>
    <defs>
        <linearGradient id="_Linear1" x1="0" y1="0" x2="1" y2="0" gradientUnits="userSpaceOnUse" gradientTransform="matrix(44.276922,-44.276922,43.590421,43.590421,241.752747,310.988468)"><stop offset="0" style="stop-color:rgb(241,140,53);stop-opacity:1"/><stop offset="1" style="stop-color:rgb(239,88,94);stop-opacity:1"/></linearGradient>
        <linearGradient id="_Linear2" x1="0" y1="0" x2="1" y2="0" gradientUnits="userSpaceOnUse" gradientTransform="matrix(44.276922,-44.276922,43.590421,43.590421,241.752747,310.988468)"><stop offset="0" style="stop-color:rgb(241,140,53);stop-opacity:1"/><stop offset="1" style="stop-color:rgb(239,88,94);stop-opacity:1"/></linearGradient>
    </defs>
</svg>
