<?xml version="1.0" encoding="UTF-8" standalone="no"?>
<!DOCTYPE svg PUBLIC "-//W3C//DTD SVG 1.1//EN" "http://www.w3.org/Graphics/SVG/1.1/DTD/svg11.dtd">
<svg width="100%" height="100%" viewBox="0 0 266 262" version="1.1" xmlns="http://www.w3.org/2000/svg" xmlns:xlink="http://www.w3.org/1999/xlink" xml:space="preserve" xmlns:serif="http://www.serif.com/" style="fill-rule:evenodd;clip-rule:evenodd;stroke-linejoin:round;stroke-miterlimit:2;">
    <g transform="matrix(1,0,0,1,-635.504908,-364)">
        <g transform="matrix(2.936067,0,0,2.936067,-3.766569,-470.102679)">
            <g id="Icon">
                <g transform="matrix(1,0,0,1,-3.238578,41.218334)">
                    <path d="M226.526,328.464C220.059,323.223 221.046,319.126 221.046,311.5C221.045,286.765 220.021,283.372 225.49,283.822C230.855,284.264 229.778,289.31 229.803,298.499C229.854,317.734 228.051,322.336 238.501,322.329C257.364,322.316 262.859,323.469 263.419,318.47C264.416,309.574 254.396,316.662 246.737,312.115C239.077,307.567 238.853,303.053 238.853,295.505C238.853,273.608 238.285,271.498 242.418,267.443C254.722,255.374 273.647,261.189 273.009,279.499C271.892,311.599 273.613,318.593 271.791,322.831C267.675,332.401 257.755,331.763 253.288,331.763C232.258,331.763 231.436,331.743 226.526,328.464ZM255.513,305.153C259.055,305.174 263.423,305.847 263.972,303.626C263.98,303.594 264.698,277.748 263.519,274.493C261.486,268.879 247.976,266.719 247.756,278.503C247.371,299.151 247.752,299.814 248.665,301.404C250.791,305.107 253.882,304.945 255.513,305.153Z" style="fill:url(#_Linear1);"/>
                </g>
                <g transform="matrix(1,0,0,1,-3.238578,41.218334)">
                    <path d="M291.134,261.641C290.772,263.136 291.494,298.445 290.763,302.56C288.841,313.37 277.978,314.033 276.515,314.033C274.343,314.033 274.76,314.597 274.76,309.502C274.76,303.691 274.343,306.159 277.343,305.049C283.253,302.862 282.085,300.864 282.223,271.497C282.304,254.08 281.796,254.016 281.336,253.719C280.15,252.954 276.413,253.723 254.505,253.275C245.375,253.089 249.413,260.251 247.546,261.11C245.198,262.19 242.456,264.447 241.355,265.549C239.474,267.429 238.959,269.239 238.959,264.855C238.959,259.657 239.21,257.755 239.21,251.989C239.21,249.903 241.07,243.283 252.501,243.171C298.587,242.72 300.501,242.359 304.612,245.347C318.109,255.156 308.834,272.812 296.751,271.879C294.377,271.696 294.008,271.791 293.526,271.308C293.044,270.826 292.845,263.099 293.505,263.099C297.311,263.099 297.949,263.557 300.12,262.039C301.819,260.851 302.493,259.278 302.458,257.709C302.357,253.124 296.2,248.577 291.88,253.819C291.727,254.004 290.89,255.019 290.547,256.51C289.95,259.103 290.524,259.046 291.134,261.641Z" style="fill:url(#_Linear2);"/>
                </g>
            </g>
        </g>
    </g>
    <defs>
        <linearGradient id="_Linear1" x1="0" y1="0" x2="1" y2="0" gradientUnits="userSpaceOnUse" gradientTransform="matrix(44.276922,-44.276922,43.590421,43.590421,241.752747,310.988468)"><stop offset="0" style="stop-color:rgb(241,140,53);stop-opacity:1"/><stop offset="1" style="stop-color:rgb(239,88,94);stop-opacity:1"/></linearGradient>
        <linearGradient id="_Linear2" x1="0" y1="0" x2="1" y2="0" gradientUnits="userSpaceOnUse" gradientTransform="matrix(44.276922,-44.276922,43.590421,43.590421,241.752747,310.988468)"><stop offset="0" style="stop-color:rgb(241,140,53);stop-opacity:1"/><stop offset="1" style="stop-color:rgb(239,88,94);stop-opacity:1"/></linearGradient>
    </defs>
</svg>
